<?xml version="1.0" standalone="no"?>
<!DOCTYPE svg PUBLIC "-//W3C//DTD SVG 20010904//EN"
 "http://www.w3.org/TR/2001/REC-SVG-20010904/DTD/svg10.dtd">
<svg version="1.0" xmlns="http://www.w3.org/2000/svg"
 width="512.000000pt" height="512.000000pt" viewBox="0 0 512.000000 512.000000"
 preserveAspectRatio="xMidYMid meet">

<g transform="translate(0.000000,512.000000) scale(0.100000,-0.100000)"
fill="#000000" stroke="none">
<path d="M1680 4143 c-53 -9 -158 -47 -225 -81 -103 -53 -233 -184 -280 -284
-74 -155 -69 -72 -72 -1192 -4 -1135 -6 -1093 69 -1246 58 -119 178 -238 298
-297 156 -76 112 -73 1082 -73 834 0 868 1 944 20 143 37 286 125 371 229 50
62 84 124 122 226 l26 70 3 1027 c3 1153 6 1094 -70 1242 -81 155 -227 275
-413 338 l-70 23 -880 1 c-484 1 -891 0 -905 -3z m1768 -178 c181 -43 329
-191 377 -380 22 -86 22 -1934 0 -2038 -42 -202 -215 -367 -416 -398 -50 -8
-315 -10 -888 -6 -889 5 -861 3 -971 63 -116 63 -202 170 -243 299 l-22 70 0
985 0 985 22 70 c54 172 193 302 373 349 83 22 1675 23 1768 1z"/>
<path d="M3383 3517 c-22 -24 -49 -68 -60 -98 -43 -113 -48 -182 -48 -626 0
-492 -10 -452 113 -453 l72 0 0 594 c0 327 -3 601 -6 610 -10 26 -29 19 -71
-27z"/>
<path d="M2980 3201 c0 -145 -3 -181 -13 -181 -11 0 -16 30 -20 122 -4 66 -7
145 -7 175 0 29 -4 53 -9 53 -14 0 -21 -68 -21 -225 0 -119 -3 -147 -12 -137
-9 9 -14 65 -16 187 -2 96 -8 175 -13 175 -17 0 -24 -57 -24 -200 0 -164 8
-188 69 -214 28 -12 35 -21 41 -53 6 -38 -5 -329 -25 -653 -16 -256 -13 -369
10 -407 21 -35 63 -52 89 -36 8 5 24 22 35 37 24 32 25 90 7 366 -25 369 -31
488 -31 599 0 112 1 117 30 160 34 50 34 54 18 242 -11 143 -17 167 -38 154
-8 -5 -11 -51 -8 -170 3 -146 -1 -189 -17 -173 -3 2 -8 83 -12 178 -6 124 -12
175 -20 178 -10 3 -13 -37 -13 -177z"/>
<path d="M1767 2832 c-20 -4 -20 -11 -7 -83 17 -90 61 -167 159 -278 l91 -105
1 -70 c0 -39 0 -246 0 -461 -1 -214 3 -396 7 -403 15 -22 55 -10 63 18 4 14 7
207 8 429 l1 404 25 43 c14 24 58 69 98 101 126 100 205 185 238 258 16 36 32
85 35 108 l6 42 -354 0 c-195 0 -362 -1 -371 -3z"/>
<path d="M2271 2276 c-14 -17 -121 -421 -121 -457 0 -38 31 -73 57 -65 32 10
41 40 68 211 36 228 42 325 23 325 -9 0 -21 -6 -27 -14z"/>
<path d="M3302 2198 c-15 -15 -16 -252 -2 -313 10 -45 50 -85 84 -85 12 0 34
13 49 28 l28 29 -3 158 -3 159 -50 11 c-27 6 -59 15 -70 18 -12 4 -26 2 -33
-5z"/>
<path d="M4216 3997 c3 -10 9 -15 12 -12 3 3 0 11 -7 18 -10 9 -11 8 -5 -6z"/>
<path d="M4235 3972 c-2 -3 3 -18 11 -34 9 -17 17 -37 19 -46 2 -10 11 -44 21
-77 17 -56 18 -133 21 -1220 4 -1299 7 -1248 -67 -1400 -70 -145 -184 -261
-323 -330 -139 -68 -90 -66 -1385 -63 l-1167 3 -85 28 c-93 30 -137 29 -79 -2
19 -10 39 -16 44 -13 6 3 3 -3 -5 -14 -8 -10 -10 -16 -6 -12 5 4 17 -2 27 -14
11 -11 19 -16 19 -9 0 9 4 8 14 -1 8 -7 11 -17 8 -22 -3 -5 3 -6 12 -3 13 5
17 3 13 -6 -6 -16 29 -41 38 -27 3 6 11 10 16 10 6 0 7 -5 4 -10 -4 -6 7 -24
24 -41 29 -28 32 -29 52 -15 15 10 28 12 39 6 10 -5 21 -6 25 -2 5 4 4 0 -1
-8 -13 -23 -13 -39 -1 -47 7 -3 9 -3 5 2 -4 4 -2 17 4 29 7 11 11 25 10 29 -1
5 2 6 8 2 6 -3 7 -11 4 -17 -5 -7 -1 -9 9 -5 16 6 43 -24 32 -35 -3 -3 1 -5 8
-5 8 0 14 6 14 13 0 7 -5 10 -11 7 -6 -3 -7 -2 -3 2 10 12 38 15 31 4 -3 -5 1
-9 8 -9 9 0 9 -3 -2 -10 -10 -7 -11 -10 -2 -10 7 0 15 7 19 16 4 12 9 10 24
-13 13 -19 19 -23 19 -11 0 9 -6 18 -12 21 -7 2 -1 4 14 3 22 -1 24 -4 15 -16
-9 -10 -4 -9 16 3 28 18 28 18 18 -1 -9 -16 -8 -20 4 -18 8 1 18 6 22 11 4 4
2 5 -6 0 -10 -6 -12 -4 -7 4 5 7 11 10 14 7 3 -3 12 0 20 7 13 10 14 9 7 -2
-6 -11 -3 -13 13 -9 11 3 33 -2 49 -12 28 -17 56 -12 75 15 4 6 8 2 8 -8 0
-10 5 -15 10 -12 6 4 8 10 5 15 -3 4 4 6 15 3 11 -3 17 -9 14 -14 -3 -5 5 -7
18 -6 13 2 23 9 23 15 0 16 11 19 22 8 5 -5 2 -6 -6 -1 -9 5 -12 4 -7 -3 4 -6
13 -9 21 -6 8 4 12 10 9 15 -3 5 2 6 11 3 14 -6 14 -8 -2 -21 -10 -8 -13 -12
-7 -9 20 10 64 15 59 6 -3 -4 1 -10 8 -13 6 -2 16 -6 21 -8 5 -2 10 4 12 14 2
14 -1 16 -11 7 -10 -9 -13 -7 -10 7 2 10 4 19 4 20 1 1 13 -4 27 -12 15 -7 35
-12 45 -10 17 3 18 1 7 -18 -10 -20 -10 -21 5 -8 14 11 17 11 17 0 0 -12 2
-12 9 -1 4 8 17 12 27 11 11 -2 25 0 33 5 15 10 34 -12 24 -28 -3 -5 -1 -6 5
-2 6 3 9 16 7 29 -4 22 -4 22 11 2 8 -11 22 -19 31 -17 8 2 13 -1 9 -6 -3 -5
1 -9 9 -9 11 0 12 3 3 14 -6 8 -16 12 -23 10 -6 -3 -11 5 -11 18 0 13 4 21 8
19 5 -3 5 -10 2 -16 -5 -8 -1 -9 10 -5 10 4 15 3 11 -3 -3 -6 -1 -11 4 -11 38
-4 56 -1 53 9 -1 9 3 9 18 0 10 -7 17 -14 15 -16 -8 -9 21 -29 34 -24 9 3 12
1 8 -5 -10 -16 30 -4 44 13 15 18 30 18 23 1 -3 -8 2 -14 10 -14 8 0 12 6 10
12 -7 18 22 39 32 24 4 -7 3 -9 -4 -5 -6 3 -13 2 -16 -3 -7 -11 13 -9 31 2 7
4 22 3 33 -3 16 -8 20 -8 18 2 -2 9 10 13 37 13 22 0 51 6 65 13 22 11 23 11
8 -1 -10 -8 -14 -18 -10 -22 4 -5 2 -5 -4 -2 -6 4 -19 0 -29 -7 -17 -12 -16
-13 6 -10 13 1 26 3 29 4 3 1 9 2 13 1 5 -1 6 3 3 8 -3 5 1 12 10 15 8 3 12
11 8 17 -5 8 -3 9 5 4 9 -5 10 -10 2 -18 -6 -6 -11 -14 -11 -18 0 -9 27 -5 37
6 5 4 1 5 -7 0 -9 -5 -12 -5 -7 1 5 5 12 9 15 9 4 0 13 4 21 9 10 6 12 5 7 -2
-4 -7 -9 -21 -11 -33 -3 -17 -2 -19 10 -9 8 7 12 16 9 21 -3 5 2 6 10 3 9 -3
14 -10 11 -14 -4 -7 3 -7 34 -1 2 1 -2 7 -8 15 -9 11 -9 16 0 22 8 5 9 3 4 -6
-5 -9 -2 -10 13 -6 12 4 23 2 28 -5 5 -8 3 -9 -7 -4 -11 7 -12 6 -2 -7 7 -8 9
-19 5 -24 -4 -4 1 -3 10 5 9 7 15 18 12 26 -3 7 -1 16 5 20 6 3 11 -2 11 -12
0 -15 2 -16 10 -3 5 8 10 10 10 3 0 -12 37 -7 57 9 8 6 10 4 8 -9 -2 -10 -4
-18 -5 -18 -1 0 -3 -8 -5 -18 -2 -11 0 -16 3 -12 4 4 7 12 7 18 0 5 6 12 14
15 8 3 11 0 7 -6 -3 -5 1 -13 10 -16 8 -3 12 -11 8 -17 -4 -8 -3 -9 5 -5 6 4
8 13 4 19 -12 19 -12 36 -1 44 7 4 8 1 3 -7 -6 -10 -3 -12 13 -8 12 4 25 1 29
-4 3 -6 1 -8 -5 -4 -6 3 -13 2 -16 -3 -11 -16 11 -22 24 -6 15 18 34 20 24 3
-5 -9 -3 -9 9 1 9 7 15 17 12 20 -2 4 2 8 10 8 11 0 12 -4 4 -14 -7 -8 -8 -13
-1 -13 5 0 8 -14 7 -30 -1 -17 0 -28 4 -25 3 4 7 20 7 36 2 43 3 45 14 29 6
-10 10 -11 10 -2 0 6 5 12 11 12 5 0 7 -5 3 -12 -4 -7 -3 -8 4 -4 32 20 126
23 149 6 17 -14 17 -14 0 6 -17 21 -17 21 33 19 28 -1 53 -6 58 -10 4 -5 -2
-5 -13 -2 -18 7 -19 6 -3 -6 10 -8 17 -16 15 -18 -1 -2 0 -2 3 -1 3 2 6 8 6
13 3 20 4 21 17 12 18 -14 49 -24 43 -14 -3 5 3 11 14 14 10 3 20 1 22 -5 2
-6 14 -5 31 1 35 14 70 14 62 1 -3 -6 1 -7 9 -4 9 3 14 10 11 14 -3 5 9 5 26
0 26 -8 29 -7 18 6 -10 12 -9 13 4 9 8 -4 18 -2 21 3 3 6 20 8 37 5 23 -3 29
-1 24 8 -5 8 -4 10 4 5 16 -10 2 -29 -18 -23 -11 2 -17 -2 -17 -13 0 -9 6 -17
13 -17 7 0 10 4 7 8 -2 4 9 10 26 14 26 6 28 8 15 21 -8 9 -15 18 -15 22 0 3
5 1 11 -5 11 -11 52 -6 45 6 -3 4 4 7 14 7 14 0 16 -3 8 -13 -8 -10 -7 -12 6
-7 9 3 16 9 16 13 0 4 9 8 20 9 11 1 29 3 39 4 11 1 17 7 14 12 -4 5 1 7 10 3
10 -3 17 -3 17 2 0 5 14 14 30 21 17 7 30 19 30 27 0 8 5 11 11 7 8 -4 9 1 4
17 -4 17 -3 20 3 10 12 -16 53 -5 46 13 -3 7 5 21 17 32 13 10 19 13 15 7 -12
-21 5 -15 28 10 12 13 21 28 19 34 -2 6 6 13 17 16 12 3 24 15 27 26 3 11 9
18 14 15 5 -3 9 0 9 7 0 6 8 18 18 26 15 13 15 14 0 10 -11 -4 -15 0 -13 11 1
10 9 16 20 14 10 -2 14 1 10 7 -3 6 -1 11 5 11 6 0 9 4 5 9 -3 5 2 16 10 24
17 17 20 31 5 22 -6 -3 -7 1 -4 10 4 9 13 14 20 11 8 -3 13 0 11 7 -1 7 4 11
12 9 11 -2 12 0 3 11 -7 8 -8 18 -4 23 4 4 -1 2 -10 -5 -10 -7 -15 -18 -11
-24 3 -6 1 -7 -6 -3 -6 4 -9 12 -5 17 3 5 1 16 -6 24 -9 11 -7 13 7 11 24 -4
34 13 22 36 -7 14 -6 20 6 24 8 3 15 15 15 26 0 12 4 17 12 12 7 -4 8 -3 4 5
-6 8 -12 9 -20 2 -9 -8 -13 -7 -13 4 0 7 3 14 6 13 24 -2 31 5 11 12 -24 8
-24 8 -2 9 12 1 22 6 22 12 0 5 5 7 11 3 7 -4 7 1 -1 16 -6 12 -9 24 -6 27 3
4 1 12 -5 19 -7 8 -6 14 2 20 8 5 9 3 4 -6 -6 -9 -4 -11 4 -6 7 5 10 11 7 14
-3 3 2 14 11 25 13 14 14 18 3 12 -8 -5 -22 -10 -30 -12 -12 -1 -11 1 3 11 9
7 17 19 17 27 0 11 -2 11 -10 -1 -8 -11 -9 -9 -6 12 3 15 -1 29 -7 32 -8 3 -8
5 1 5 7 1 10 6 7 11 -5 9 7 14 27 11 5 0 4 23 -2 39 -1 3 -2 8 -1 12 0 4 -6 5
-14 2 -11 -5 -13 -2 -9 10 4 9 9 14 12 12 3 -3 11 -1 18 5 15 12 10 29 -9 29
-8 0 -8 -3 2 -9 8 -5 9 -11 3 -15 -6 -3 -13 -2 -16 3 -8 12 4 42 14 36 11 -7
7 15 -8 41 -6 12 -8 24 -5 28 3 3 -1 6 -10 6 -9 0 -17 3 -18 8 0 4 -2 15 -4
24 -2 9 3 22 11 29 9 8 11 16 4 29 -6 11 -5 21 3 30 10 10 9 11 -3 5 -12 -7
-13 -6 -3 7 7 8 9 18 5 22 -4 4 -7 15 -8 24 -3 46 -5 53 -12 48 -4 -2 -8 6 -8
19 0 13 2 23 6 23 17 -3 40 17 40 35 0 20 -1 20 -13 3 -13 -17 -14 -17 -28 0
-7 10 -9 15 -3 11 7 -4 17 0 23 7 9 11 9 16 0 22 -8 5 -9 3 -4 -6 6 -9 4 -11
-5 -5 -10 6 -9 11 4 21 12 8 14 14 6 19 -8 5 -6 13 7 28 10 11 12 17 6 13 -7
-4 -13 -2 -13 4 0 6 -5 8 -12 4 -7 -4 -8 -3 -4 5 4 6 13 8 19 4 7 -3 4 3 -6
14 -14 16 -15 23 -6 29 7 4 10 3 5 -4 -3 -6 -2 -13 3 -16 5 -3 11 5 13 18 4
19 1 23 -11 18 -13 -5 -14 -3 -5 9 13 16 15 51 2 43 -5 -3 -5 -10 -2 -16 4 -7
2 -8 -4 -4 -8 5 -9 13 -2 25 6 12 5 22 -2 29 -7 7 -8 12 -4 12 5 0 2 8 -5 18
-13 15 -12 16 3 3 10 -7 15 -18 11 -24 -3 -6 -1 -7 5 -3 12 7 7 51 -8 71 -9
12 15 37 26 27 4 -4 4 -1 0 6 -4 7 -12 10 -17 7 -5 -4 -9 -2 -9 4 0 5 5 13 10
16 10 6 8 34 -5 68 -4 9 -3 17 1 17 5 0 10 10 11 23 0 12 3 34 5 48 4 22 2 26
-19 23 -13 -1 -21 2 -17 7 3 5 9 7 14 4 5 -3 11 -1 15 5 4 6 12 7 18 4 9 -5 9
-4 0 6 -6 7 -9 19 -6 26 3 8 0 14 -5 14 -6 0 -9 -9 -7 -21 3 -17 2 -19 -10 -9
-15 13 -5 42 25 67 13 11 12 12 -4 6 -15 -5 -17 -3 -11 7 6 10 4 12 -8 7 -13
-5 -14 -2 -7 16 4 12 13 21 19 20 6 -2 11 0 12 5 0 4 2 15 4 25 2 9 -1 15 -5
12 -5 -3 -11 -1 -15 5 -4 6 -12 7 -18 3 -7 -4 -6 1 2 10 11 14 17 15 30 5 14
-12 14 -11 2 4 -7 10 -18 15 -24 11 -7 -4 -8 0 -3 12 4 11 1 22 -6 28 -9 6 -6
7 9 4 15 -3 20 -1 16 9 -3 8 -9 11 -14 8 -5 -3 -9 -1 -9 5 0 5 8 12 18 14 13
4 12 5 -5 6 -12 0 -25 5 -28 11 -4 6 1 7 11 3 11 -4 15 -3 10 5 -3 6 -2 14 4
17 8 5 8 11 0 20 -6 7 -8 21 -4 31 5 18 5 18 -6 1 -9 -14 -9 -22 0 -33 10 -11
9 -14 -3 -14 -10 0 -14 8 -12 25 1 14 -3 25 -9 25 -6 0 0 7 12 16 18 13 21 19
11 30 -9 11 -9 14 0 14 7 0 9 5 6 10 -4 6 -12 7 -18 3 -7 -4 -6 0 2 10 7 9 11
17 8 17 -3 0 -1 13 4 30 6 16 15 28 19 25 9 -6 7 11 -4 37 -13 29 -14 53 -2
61 7 6 4 7 -7 3 -13 -4 -16 -2 -10 6 11 19 11 48 0 55 -6 3 -7 1 -3 -5 3 -6 3
-13 -2 -16 -5 -3 -9 0 -10 7 0 7 -3 22 -6 34 -3 15 -1 20 8 17 8 -3 12 3 11
18 -1 14 -8 23 -18 22 -9 -1 -13 4 -10 12 3 8 9 12 13 9 5 -3 11 -1 14 4 4 5
1 13 -5 17 -8 5 -9 3 -4 -6 5 -8 4 -11 -3 -6 -6 4 -8 14 -5 24 6 15 5 16 -13
2 -19 -14 -19 -14 -1 7 14 16 15 22 5 26 -8 3 -5 6 7 6 16 1 17 3 5 10 -8 6
-19 7 -25 4 -5 -4 -7 -2 -2 2 4 5 0 17 -10 27 -9 10 -13 21 -9 25 3 4 12 1 19
-7 10 -10 9 -11 -2 -5 -10 6 -12 4 -7 -4 9 -13 21 -6 21 12 1 7 6 11 13 10 6
-2 9 4 5 13 -5 13 -7 13 -14 2 -7 -10 -9 -9 -9 5 0 15 -10 21 -30 19 -3 0 -7
11 -8 24 -1 15 2 23 8 19 6 -4 8 -10 5 -15 -3 -4 2 -11 11 -14 13 -5 12 -1 -2
24 -10 16 -21 27 -26 24 -4 -3 -8 0 -8 6 0 7 -7 9 -16 6 -14 -6 -15 -4 -4 10
11 13 11 17 0 24 -7 4 -10 15 -7 25 4 9 3 14 -3 10 -6 -3 -10 0 -10 7 0 9 -3
9 -10 -2 -7 -11 -8 -6 -4 17 5 25 3 34 -10 39 -9 3 -13 11 -9 18 3 6 -3 3 -14
-7 -16 -14 -23 -15 -29 -6 -4 7 -3 10 4 5 19 -11 22 11 6 43 -8 17 -18 31 -20
31 -3 0 -2 -4 1 -10 3 -5 1 -10 -4 -10 -6 0 -12 7 -12 15 -3 29 -4 33 -13 42
-5 5 -6 3 -2 -4 4 -7 2 -13 -3 -13 -6 0 -11 4 -11 8 0 5 -8 8 -17 8 -10 -1
-19 4 -20 9 -1 6 6 10 17 9 10 0 17 3 14 8 -5 8 -51 7 -59 0z m171 -167 c-1
-8 -5 -17 -8 -21 -5 -4 -4 16 1 34 3 9 9 -1 7 -13z m107 -209 c4 -10 1 -13 -8
-9 -8 3 -12 9 -9 14 7 12 11 11 17 -5z m47 -340 c0 -2 -7 -7 -16 -10 -8 -3
-12 -2 -9 4 6 10 25 14 25 6z m0 -203 c0 -3 -7 -3 -15 1 -8 3 -15 0 -15 -6 0
-6 -3 -9 -6 -5 -11 10 6 26 21 20 8 -3 15 -7 15 -10z m20 -263 c0 -4 -7 -7
-15 -6 -23 3 -26 12 -5 13 11 1 20 -2 20 -7z m-5 -210 c3 -5 1 -10 -4 -10 -6
0 -11 5 -11 10 0 6 2 10 4 10 3 0 8 -4 11 -10z m-18 -35 c0 -8 -4 -12 -9 -9
-5 3 -6 10 -3 15 9 13 12 11 12 -6z m-10 -650 c0 -8 -4 -12 -9 -9 -5 3 -6 10
-3 15 9 13 12 11 12 -6z m20 -210 c0 -8 -4 -12 -9 -9 -5 3 -6 10 -3 15 9 13
12 11 12 -6z m27 -24 c3 -5 -2 -15 -11 -22 -12 -10 -14 -10 -9 -1 4 7 2 12 -6
12 -9 0 -9 3 2 10 18 12 18 12 24 1z m-3239 -931 c2 -12 1 -20 -2 -16 -4 4 -8
16 -10 28 -4 28 6 18 12 -12z m2858 -15 c-3 -9 -8 -14 -10 -11 -3 3 -2 9 2 15
9 16 15 13 8 -4z m-2769 -39 c16 6 23 -11 8 -20 -12 -7 -52 22 -52 37 0 7 7 4
14 -6 8 -10 20 -15 30 -11z m452 -82 c2 -12 -1 -13 -12 -3 -7 6 -11 16 -8 21
7 11 17 3 20 -18z m1072 -9 c-3 -3 -9 2 -12 12 -6 14 -5 15 5 6 7 -7 10 -15 7
-18z m819 19 c-3 -3 -12 -4 -19 -1 -8 3 -5 6 6 6 11 1 17 -2 13 -5z m-37 -8
c0 -2 -7 -6 -15 -10 -8 -3 -15 -1 -15 4 0 6 7 10 15 10 8 0 15 -2 15 -4z
m-1180 -21 c-14 -17 -1 -20 18 -5 8 6 8 5 -1 -5 -7 -9 -21 -12 -36 -8 l-23 6
23 13 c31 17 34 17 19 -1z"/>
<path d="M4430 3801 c0 -6 4 -13 10 -16 6 -3 7 1 4 9 -7 18 -14 21 -14 7z"/>
<path d="M4561 1966 c-9 -10 -7 -16 6 -27 10 -7 15 -9 11 -5 -4 5 0 15 10 23
16 12 16 13 -2 6 -13 -4 -17 -3 -12 5 10 16 1 15 -13 -2z"/>
<path d="M4565 1760 c-3 -5 0 -10 7 -10 11 0 10 -2 0 -9 -11 -7 -11 -9 0 -14
10 -3 14 3 14 19 0 25 -10 32 -21 14z"/>
<path d="M4585 1490 c-3 -5 -1 -10 4 -10 6 0 11 5 11 10 0 6 -2 10 -4 10 -3 0
-8 -4 -11 -10z"/>
<path d="M1544 615 c0 -13 3 -22 7 -19 8 4 6 30 -2 38 -3 3 -5 -5 -5 -19z"/>
<path d="M3895 601 c-3 -5 -2 -12 3 -15 5 -3 9 1 9 9 0 17 -3 19 -12 6z"/>
<path d="M2190 581 c0 -5 8 -15 18 -22 9 -7 14 -9 10 -5 -4 5 -4 14 2 20 6 8
3 12 -11 13 -10 1 -19 -2 -19 -6z"/>
<path d="M3530 583 c0 -1 8 -7 18 -12 13 -7 19 -6 19 2 0 7 -9 13 -19 13 -10
0 -18 -1 -18 -3z"/>
<path d="M2325 570 c-4 -6 -12 -7 -18 -3 -7 4 -6 -1 2 -10 15 -19 24 -16 27 8
3 17 -2 19 -11 5z"/>
<path d="M2485 570 c-3 -5 -11 -8 -18 -6 -7 1 -9 1 -4 -1 4 -3 5 -8 2 -13 -3
-5 2 -7 12 -6 9 2 17 10 19 19 3 19 -2 22 -11 7z"/>
<path d="M2753 565 c0 -8 4 -12 9 -9 5 3 6 10 3 15 -9 13 -12 11 -12 -6z"/>
<path d="M2695 561 c-3 -5 -2 -12 3 -15 5 -3 9 1 9 9 0 17 -3 19 -12 6z"/>
<path d="M3115 561 c-3 -5 -2 -12 3 -15 5 -3 9 1 9 9 0 17 -3 19 -12 6z"/>
<path d="M2433 525 c0 -8 4 -12 9 -9 5 3 6 10 3 15 -9 13 -12 11 -12 -6z"/>
<path d="M2750 536 c0 -2 8 -10 18 -17 15 -13 16 -12 3 4 -13 16 -21 21 -21
13z"/>
<path d="M3123 515 c0 -8 4 -12 9 -9 5 3 6 10 3 15 -9 13 -12 11 -12 -6z"/>
</g>
</svg>
